<svg width="101" height="17" viewBox="0 0 101 17" fill="none" xmlns="http://www.w3.org/2000/svg">
<g clip-path="url(#clip0_524_839)">
<path d="M35.2311 8.22444C35.2311 5.65235 35.2299 3.08036 35.2274 0.508481C35.2274 0.362798 35.2696 0.3349 35.406 0.33552C36.5109 0.340893 37.6158 0.340893 38.7207 0.33552C38.8534 0.33552 38.8912 0.362179 38.8909 0.501973C38.8853 2.41942 38.8887 4.33655 38.8838 6.25399C38.8838 6.38976 38.9148 6.42137 39.0505 6.42044C40.0267 6.41383 41.0026 6.41383 41.9781 6.42044C42.1279 6.42044 42.1486 6.37302 42.1486 6.24129C42.1446 4.3443 42.1486 2.44762 42.1421 0.550946C42.1421 0.405573 42.1833 0.376126 42.3207 0.376746C43.431 0.382326 44.5411 0.382326 45.6512 0.376746C45.7681 0.376746 45.8062 0.399993 45.8062 0.525529C45.8029 5.6693 45.8029 10.8132 45.8062 15.9571C45.8062 16.0861 45.7638 16.1044 45.6512 16.1041C44.5354 16.1001 43.4201 16.1001 42.3055 16.1041C42.1775 16.1041 42.1443 16.0731 42.1446 15.9438C42.1489 14.0366 42.1461 12.1312 42.1505 10.2225C42.1505 10.0985 42.1269 10.0601 41.9955 10.061C41.0092 10.0674 40.023 10.0674 39.0369 10.061C38.9129 10.061 38.8878 10.096 38.8881 10.2135C38.8915 12.1204 38.8881 14.0276 38.8937 15.9345C38.8937 16.0641 38.872 16.1056 38.7297 16.1047C37.6194 16.0975 36.5092 16.0975 35.3991 16.1047C35.2655 16.1047 35.2305 16.0768 35.2308 15.9389C35.2335 13.368 35.2336 10.7965 35.2311 8.22444Z" fill="#231F20"/>
<path d="M0.0336688 12.4778C0.031189 12.4214 0.0268504 12.3647 0.0268504 12.3083C0.0268504 8.37048 0.0257106 4.43257 0.0234375 0.494557C0.0234375 0.353832 0.0581578 0.319426 0.198262 0.320046C1.76793 0.327175 3.33759 0.326246 4.90725 0.328726C6.33743 0.331206 7.7676 0.333789 9.19778 0.336475C9.24068 0.334793 9.28343 0.342491 9.32305 0.359034C9.36266 0.375576 9.39819 0.400566 9.42716 0.432255C9.97249 0.981514 10.5201 1.52829 11.07 2.07259C11.0994 2.09984 11.1225 2.13324 11.1375 2.17043C11.1526 2.20761 11.1593 2.24765 11.1571 2.28771C11.1552 6.24638 11.1552 10.205 11.1571 14.1634C11.1596 14.2038 11.1532 14.2442 11.1382 14.2817C11.1231 14.3192 11.1 14.3529 11.0703 14.3804C10.5214 14.9255 9.97487 15.4731 9.43057 16.0232C9.37384 16.0803 9.31929 16.1162 9.23126 16.1162C7.74343 16.1181 6.25653 16.1223 4.77056 16.1289C4.7501 16.1289 4.72964 16.1261 4.70856 16.1246C4.41565 16.0982 4.1218 16.1193 3.82857 16.1134C3.66088 16.1103 3.64569 16.1032 3.64538 15.9448C3.64249 14.8378 3.64249 13.731 3.64538 12.6244C3.64098 12.5727 3.65349 12.5209 3.68103 12.4769C3.76131 12.4112 3.85771 12.4298 3.94884 12.4298C5.00644 12.4283 6.06424 12.4283 7.12226 12.4298H7.23044C7.44028 12.4273 7.44741 12.4208 7.44741 12.2128C7.44741 10.8529 7.44741 9.49317 7.44741 8.13366V4.37657C7.44741 4.32511 7.44493 4.27335 7.44741 4.22159C7.45237 4.1069 7.40495 4.04645 7.28468 4.05482C7.27445 4.05482 7.26391 4.05482 7.25368 4.05482C6.15486 4.0635 5.05696 4.00058 3.95782 4.02383C3.88653 4.02538 3.81276 4.01329 3.74674 4.05265C3.67545 4.11992 3.70118 4.20764 3.70118 4.28699C3.69994 6.92852 3.69932 9.57015 3.69932 12.2119C3.69932 12.303 3.71854 12.3979 3.66274 12.4828C3.60075 12.5349 3.5279 12.5287 3.4563 12.5287C2.3832 12.5303 1.31021 12.5303 0.237318 12.5287C0.166336 12.529 0.0922522 12.5327 0.0336688 12.4778Z" fill="#231F20"/>
<path d="M64.7757 6.01502C64.7757 7.82398 64.7764 9.63294 64.7776 11.4419C64.7807 11.539 64.7467 11.6337 64.6824 11.7066C63.5207 13.1064 62.3612 14.5089 61.204 15.9141C61.1064 16.0328 61.0078 16.078 60.8541 16.0765C60.0283 16.0687 59.2019 16.0703 58.3743 16.0765C58.2578 16.0765 58.1884 16.0384 58.1161 15.9525C56.9426 14.5289 55.7666 13.1072 54.5881 11.6874C54.5384 11.6287 54.5126 11.5535 54.5159 11.4766C54.5171 7.82811 54.5165 4.17931 54.514 0.530192C54.514 0.404347 54.5522 0.379549 54.669 0.380168C55.7849 0.384508 56.9 0.384508 58.0145 0.380168C58.1385 0.380168 58.1654 0.411166 58.1654 0.532362C58.1619 3.7279 58.1603 6.92322 58.1605 10.1183C58.1568 10.2201 58.1923 10.3194 58.2597 10.3958C58.6965 10.9171 59.1304 11.4412 59.5615 11.9679C59.6139 12.0314 59.6415 12.0721 59.7165 11.9781C60.1449 11.4497 60.5788 10.9256 61.0183 10.4057C61.0881 10.3242 61.1241 10.2192 61.1191 10.1121C61.1166 6.93231 61.1146 3.75238 61.1132 0.572347C61.1132 0.417365 61.1476 0.378 61.3054 0.37924C62.4006 0.387092 63.4952 0.387092 64.5891 0.37924C64.7547 0.37924 64.7779 0.429143 64.7773 0.576377C64.7734 2.38823 64.7728 4.20111 64.7757 6.01502Z" fill="#231F20"/>
<path d="M13.4844 8.19594C13.4844 6.22166 13.4837 4.24739 13.4822 2.27312C13.4802 2.22545 13.4886 2.17792 13.507 2.13388C13.5254 2.08985 13.5532 2.0504 13.5886 2.01833C14.1306 1.48106 14.6698 0.940584 15.2063 0.396905C15.2337 0.366992 15.2673 0.343424 15.3048 0.327846C15.3423 0.312267 15.3827 0.305051 15.4232 0.306704C17.0084 0.304224 18.5933 0.296167 20.1784 0.294617C21.0045 0.294617 21.8302 0.307014 22.6563 0.305154C22.788 0.305154 22.8044 0.3532 22.8032 0.465097C22.7931 1.58283 22.7865 2.70077 22.7834 3.81892C22.7834 3.93237 22.7468 3.95096 22.6436 3.95065C21.2857 3.94383 19.9278 3.93981 18.5697 3.93857C18.1308 3.93857 17.6919 3.94445 17.253 3.94073C17.1575 3.94073 17.133 3.96367 17.1336 4.05976C17.138 4.80182 17.138 5.54408 17.1336 6.28655C17.1336 6.39659 17.1628 6.42046 17.2697 6.42015C18.504 6.41612 19.738 6.42015 20.9722 6.41364C21.1133 6.41364 21.1371 6.45238 21.1365 6.58288C21.1309 7.69111 21.1309 8.79933 21.1365 9.90756C21.1365 10.0514 21.0934 10.0706 20.9657 10.07C19.7367 10.0653 18.5074 10.0684 17.2771 10.0647C17.1674 10.0647 17.1296 10.0821 17.1308 10.2039C17.1377 10.8997 17.1377 11.5955 17.1308 12.2915C17.1308 12.4059 17.1566 12.4356 17.274 12.4359C19.0604 12.4359 20.847 12.4452 22.6333 12.4456C22.7676 12.4456 22.8044 12.4735 22.8026 12.6123C22.7893 13.7353 22.784 14.8586 22.7809 15.9823C22.7809 16.0787 22.7548 16.1007 22.6603 16.1004C20.2438 16.0927 17.8273 16.0875 15.4108 16.0849C15.378 16.086 15.3452 16.08 15.3149 16.0672C15.2845 16.0545 15.2573 16.0353 15.2351 16.0111C14.6772 15.4519 14.1181 14.8946 13.5579 14.3391C13.4906 14.2725 13.4819 14.2031 13.4819 14.1187C13.4842 12.1441 13.485 10.1698 13.4844 8.19594Z" fill="#231F20"/>
<path d="M67.5486 8.19594C67.5486 6.22746 67.5478 4.25866 67.5461 2.28956C67.5443 2.23717 67.554 2.18503 67.5746 2.13682C67.5951 2.08861 67.6261 2.04551 67.6651 2.01059C68.2001 1.48096 68.7322 0.947924 69.2612 0.411477C69.2911 0.377238 69.3283 0.350017 69.37 0.33175C69.4116 0.313482 69.4568 0.304616 69.5023 0.30578C71.1076 0.30578 72.7133 0.295861 74.3186 0.294312C75.1245 0.294312 75.9288 0.30485 76.7341 0.30609C76.8392 0.30609 76.8891 0.328717 76.8696 0.442784C76.8609 0.514764 76.8579 0.587311 76.8606 0.65976C76.8566 1.71085 76.8504 2.76225 76.8529 3.81334C76.8529 3.93733 76.8107 3.9519 76.7038 3.95128C75.3304 3.94467 73.9571 3.94074 72.584 3.9395C72.1659 3.9395 71.7471 3.9457 71.3296 3.94136C71.2282 3.94136 71.2019 3.9674 71.2025 4.06845C71.2068 4.80554 71.2081 5.54233 71.2025 6.27943C71.2025 6.39659 71.2335 6.4217 71.3463 6.42139C72.5803 6.41674 73.8146 6.42139 75.0485 6.41519C75.1797 6.41519 75.2063 6.44898 75.2057 6.57513C75.2005 7.68853 75.2005 8.80182 75.2057 9.91501C75.2057 10.0474 75.1694 10.0715 75.0445 10.07C73.8158 10.0647 72.5868 10.07 71.3581 10.0632C71.2242 10.0632 71.2009 10.101 71.2031 10.225C71.2095 10.9104 71.2095 11.5958 71.2031 12.2813C71.2031 12.3963 71.2242 12.4363 71.351 12.4363C73.1373 12.4363 74.9236 12.4456 76.7097 12.4456C76.8522 12.4456 76.8956 12.4821 76.8646 12.6167C76.8579 12.668 76.8566 12.72 76.8609 12.7716C76.8572 13.8385 76.8542 14.9052 76.8519 15.9717C76.8519 16.0669 76.8355 16.1025 76.7279 16.1022C74.3119 16.0937 71.8958 16.0884 69.4797 16.0861C69.4465 16.0866 69.4136 16.0797 69.3833 16.0661C69.3531 16.0524 69.3262 16.0323 69.3046 16.0071C68.7435 15.4448 68.1807 14.8842 67.6162 14.3252C67.5508 14.2607 67.5483 14.1944 67.5483 14.1172C67.5489 12.144 67.549 10.1702 67.5486 8.19594Z" fill="#231F20"/>
<path d="M100.016 3.93083C100.018 5.20396 100.02 6.47698 100.023 7.74991C100.023 7.82213 99.9835 7.86305 99.9448 7.90954C98.9266 9.14113 97.9074 10.3718 96.887 11.6015C96.7793 11.7232 96.7224 11.8815 96.7279 12.0439C96.7348 13.3274 96.7279 14.6107 96.7357 15.8942C96.7357 16.0492 96.6911 16.0759 96.5472 16.0753C95.4371 16.0689 94.3269 16.0689 93.2166 16.0753C93.1019 16.0753 93.0719 16.0495 93.0722 15.9327C93.0768 14.6026 93.074 13.2729 93.0771 11.9431C93.0798 11.8512 93.0476 11.7618 92.9869 11.6927C91.9434 10.4344 90.9008 9.17585 89.8591 7.91698C89.7982 7.84824 89.7656 7.75896 89.7679 7.66715C89.7704 5.25996 89.7704 2.85256 89.7679 0.44496C89.7679 0.331823 89.785 0.287808 89.9155 0.288428C91.0359 0.294627 92.1564 0.294627 93.2771 0.288428C93.4054 0.288428 93.424 0.329343 93.4237 0.443411C93.4206 2.41231 93.4194 4.38131 93.42 6.35042C93.416 6.43702 93.4455 6.52182 93.5024 6.58723C93.9674 7.14516 94.4298 7.70589 94.9013 8.27654C95.1803 7.94023 95.4558 7.60763 95.7314 7.27473C95.9254 7.0404 96.1185 6.80575 96.3132 6.57173C96.3464 6.53174 96.3811 6.49393 96.3851 6.43876C96.3786 5.6409 96.3851 4.84274 96.3805 4.04458C96.3805 3.94478 96.4198 3.90262 96.5125 3.89611C96.5485 3.89363 96.5847 3.89208 96.6207 3.89208C97.6837 3.89208 98.7463 3.89208 99.8087 3.89208C99.8788 3.89239 99.9528 3.88433 100.016 3.93083Z" fill="#231F20"/>
<path d="M24.8511 7.32493C24.8511 5.05743 24.8499 2.79003 24.8477 0.522742C24.8477 0.380468 24.8706 0.333043 25.0271 0.334283C26.1269 0.342342 27.2279 0.340792 28.3261 0.334283C28.4631 0.334283 28.5058 0.3628 28.5058 0.508793C28.5013 4.43047 28.499 8.35215 28.499 12.2738C28.499 12.4102 28.5275 12.4508 28.672 12.4502C30.2156 12.4443 31.7589 12.4483 33.3025 12.4434C33.4311 12.4434 33.4637 12.4744 33.463 12.603C33.4571 13.716 33.4571 14.8291 33.463 15.9423C33.463 16.0759 33.4246 16.0991 33.3 16.0991C31.1371 16.0952 28.974 16.0952 26.8106 16.0991C26.7656 16.1018 26.7205 16.0945 26.6785 16.0778C26.6366 16.0611 26.5988 16.0353 26.5679 16.0024C26.0307 15.46 25.4905 14.9206 24.9475 14.3844C24.9142 14.3538 24.8882 14.3163 24.8712 14.2745C24.8542 14.2327 24.8467 14.1877 24.8492 14.1426C24.8517 11.8699 24.8523 9.59738 24.8511 7.32493Z" fill="#231F20"/>
<path d="M79.3178 9.04524C79.3178 6.7827 79.3169 4.51996 79.315 2.25701C79.313 2.20686 79.322 2.15689 79.3415 2.11065C79.361 2.06441 79.3905 2.02304 79.4278 1.98951C79.9678 1.45699 80.5045 0.922091 81.0381 0.384818C81.0671 0.353438 81.1027 0.328836 81.1423 0.312764C81.1818 0.296691 81.2245 0.289544 81.2672 0.291828C83.4357 0.294308 85.6041 0.294308 87.7724 0.291828C87.8964 0.291828 87.9357 0.316316 87.9351 0.448981C87.9293 1.56238 87.9293 2.67556 87.9351 3.78854C87.9351 3.90974 87.9041 3.94353 87.782 3.94353C86.2384 3.93919 84.6947 3.94353 83.1508 3.9364C82.9958 3.9364 82.9713 3.98041 82.9713 4.12238C82.9753 8.0236 82.9779 11.9249 82.9791 15.8263C82.9791 15.9878 82.9345 16.0167 82.7838 16.0157C81.6841 16.0093 80.5843 16.0093 79.4846 16.0157C79.3531 16.0157 79.3144 15.9913 79.3147 15.8508C79.3197 13.5813 79.3207 11.3127 79.3178 9.04524Z" fill="#231F20"/>
<path d="M51.9051 8.24926C51.9051 10.8058 51.9063 13.3625 51.9085 15.9193C51.9085 16.0607 51.8862 16.1081 51.7297 16.1069C50.6246 16.0988 49.519 16.0988 48.4131 16.1069C48.2801 16.1069 48.2547 16.0684 48.255 15.9432C48.2581 10.8092 48.2581 5.6752 48.255 0.541353C48.255 0.417367 48.2804 0.377073 48.4131 0.377693C49.5234 0.383479 50.6337 0.383479 51.7439 0.377693C51.889 0.377693 51.907 0.422947 51.9067 0.549723C51.9056 3.11582 51.9051 5.68233 51.9051 8.24926Z" fill="#231F20"/>
<path d="M100.016 3.93081C98.8656 3.93081 97.7154 3.93391 96.5648 3.92833C96.4213 3.92833 96.3853 3.96832 96.3863 4.10873C96.3909 4.88581 96.3863 5.6629 96.3835 6.43936C96.3804 6.39844 96.3748 6.35784 96.3748 6.31723C96.3734 4.36425 96.371 2.41147 96.3677 0.458893C96.3677 0.321888 96.4015 0.289342 96.5375 0.290272C97.6534 0.296161 98.7692 0.293371 99.8826 0.293681C99.9508 0.293681 100.024 0.269193 100.023 0.391939C100.018 1.57074 100.018 2.75078 100.016 3.93081Z" fill="#EE4136"/>
<path d="M0.0336044 12.4778H3.65771C3.68375 12.5262 3.67135 12.5789 3.67135 12.6294C3.67135 13.7352 3.67135 14.8407 3.67135 15.946C3.67135 16.1125 3.67135 16.1137 3.50521 16.1125C2.94387 16.1081 2.38252 16.1233 1.82148 16.1047C1.25982 16.1066 0.698172 16.1075 0.136515 16.1109C0.0639831 16.1109 0.0233734 16.0998 0.0236834 16.0117C0.0288495 14.8337 0.0321579 13.6557 0.0336044 12.4778Z" fill="#EE4136"/>
<path d="M1.82214 16.1044C2.38008 16.1023 2.93802 16.0964 3.49596 16.1004C3.61994 16.1004 3.66396 16.0734 3.66334 15.9402C3.65776 14.7858 3.65962 13.6315 3.65931 12.4772C3.65931 9.70675 3.66014 6.93629 3.66179 4.16582C3.66179 4.10383 3.63079 4.0316 3.69279 3.97705C3.74765 4.03625 3.74083 4.11096 3.74083 4.18225C3.74083 6.87646 3.74083 9.57068 3.74083 12.2649C3.74083 12.3359 3.74889 12.4109 3.6931 12.4698C3.69186 13.6371 3.68999 14.8046 3.68751 15.9724C3.68751 16.0762 3.72378 16.1038 3.82204 16.1016C4.07001 16.0961 4.31798 16.0989 4.5641 16.1016C4.614 16.1016 4.66794 16.0861 4.71195 16.1258C3.774 16.1258 2.83604 16.1252 1.89808 16.124C1.87205 16.1206 1.84654 16.1141 1.82214 16.1044Z" fill="#7C504E"/>
</g>
<defs>
<clipPath id="clip0_524_839">
<rect width="100" height="15.8389" fill="white" transform="translate(0.0234375 0.289062)"/>
</clipPath>
</defs>
</svg>
